<svg xmlns="http://www.w3.org/2000/svg" xmlns:xlink="http://www.w3.org/1999/xlink" version="1.1" x="0px" y="0px" viewBox="0 0 90.142 90" enable-background="new 0 0 90.142 90" xml:space="preserve"><path d="M83.295,28.557c0.434-0.188,0.868-0.378,1.302-0.568c2.449-1.067,2.987-4.605,1.758-6.704  c-1.466-2.503-4.255-2.824-6.704-1.757c-7.289,3.178-14.577,6.354-21.866,9.53c-0.188-0.18-0.381-0.357-0.578-0.533  c-0.301-0.269-0.593-0.521-0.88-0.762c2.036-1.854,3.495-4.354,4.034-7.227c-2.132-0.14-5.536,3.763-6.027,1.337  c-0.435-2.154,4.632-3.921,6.24-4.422c-0.258-5.216-3.622-9.76-8.444-11.57c-4.615-2.07-12.242-3.192-20.478,5.182  c-19.46,19.785-29.51,9.428-29.51,9.428s15.845,21.841,43.841,10.658c1.425,3.618,3.645,11.53,1.994,22.984  c-1.354,2.547-2.707,5.093-4.06,7.639c-3.484-1.536-6.966-3.074-10.45-4.612c-2.443-1.077-5.241-0.737-6.704,1.759  c-1.233,2.106-0.686,5.625,1.757,6.703c5.042,2.225,10.082,4.451,15.123,6.675c2.36,1.043,5.349,0.792,6.703-1.757  c1.505-2.832,3.01-5.663,4.515-8.495c0.174,0.007,0.352,0.002,0.53-0.021c4.458-0.52,8.916-1.043,13.374-1.564  c0.79,4.052,1.579,8.104,2.368,12.154c0.511,2.624,3.603,4.089,6.027,3.424c2.72-0.748,3.933-3.411,3.422-6.029  c-1.054-5.403-2.106-10.809-3.16-16.211c-0.378-1.94-2.709-3.833-4.725-3.598c-2.199,0.258-4.396,0.516-6.594,0.773  c-0.068-3.015-0.443-6.648-1.52-10.315c6.171-0.763,12.342-1.527,18.514-2.292C85.75,38.038,88,36.385,88,33.467  C88,31.104,85.865,28.385,83.295,28.557z M56.35,13.673c0.789-0.238,1.826,0.056,2.088,1.146c0.262,1.09-0.958,0.687-1.521,0.869  c-0.712,0.229-1.368,1.812-1.919,0.317C54.343,14.234,56.35,13.673,56.35,13.673z"></path></svg>