<svg xmlns="http://www.w3.org/2000/svg" xmlns:xlink="http://www.w3.org/1999/xlink" version="1.1" x="0px" y="0px" viewBox="0 0 90.142 90" enable-background="new 0 0 90.142 90" xml:space="preserve"><path d="M81.093,25.608c-0.384-1.398-1.273-2.572-2.419-3.367c0.058-0.058,0.116-0.113,0.174-0.17  c5.628-5.486-2.985-14.085-8.606-8.605c-4.341,4.23-8.682,8.461-13.023,12.693c-3.788,1.108-7.575,2.218-11.362,3.328  c-0.007-0.005-0.014-0.01-0.021-0.015c2.792-2.341,4.801-5.618,5.515-9.417c-2.648-0.172-6.876,4.674-7.485,1.661  c-0.541-2.675,5.755-4.868,7.751-5.492C51.23,8.396,45.208,1.789,37.17,0.912c-8.91-0.973-16.92,5.462-17.892,14.37  c-0.848,7.767,3.933,14.848,11.073,17.182c2.368,4.049,7.08,14.127,5.979,28.686c-0.059,0.096-0.123,0.188-0.176,0.29  c-1.742,3.276-3.484,6.554-5.226,9.832c-4.326-1.91-8.652-3.819-12.978-5.729c-3.034-1.34-6.51-0.916-8.325,2.184  c-1.532,2.615-0.853,6.985,2.183,8.326c6.26,2.764,12.521,5.526,18.781,8.29c2.932,1.294,6.643,0.982,8.326-2.183  c1.869-3.517,3.738-7.033,5.607-10.55c0.217,0.008,0.437,0.002,0.659-0.023c5.537-0.648,11.073-1.298,16.61-1.946  c0.98,5.033,1.961,10.064,2.942,15.098c0.634,3.257,4.474,5.077,7.485,4.248c3.377-0.928,4.884-4.231,4.25-7.484  c-1.308-6.713-2.616-13.424-3.923-20.136c-0.47-2.409-3.365-4.761-5.868-4.468c-0.968,0.113-1.936,0.227-2.904,0.34  c-0.785-4.592-2.388-9.924-5.528-15.083c1.766-1.722,3.532-3.442,5.298-5.164c4.434-1.299,8.867-2.598,13.301-3.896  C80.023,32.161,81.983,28.845,81.093,25.608z M46.37,11.53c0.979-0.293,2.268,0.069,2.593,1.426c0.325,1.354-1.19,0.852-1.889,1.078  c-0.885,0.287-1.698,2.25-2.384,0.396C43.877,12.229,46.37,11.53,46.37,11.53z M37.957,13.692c-0.884,0.178-1.497-0.76-1.044-1.555  s0.396-1.662,0.396-1.662s0.283,0.82,1.009,1.379C39.042,12.412,38.84,13.514,37.957,13.692z M39.36,9.692  c-0.883,0.178-1.497-0.76-1.044-1.555c0.452-0.795,0.395-1.661,0.395-1.661s0.284,0.819,1.009,1.378S40.244,9.515,39.36,9.692z"></path></svg>